<svg width="12" height="13" viewBox="0 0 12 13" fill="none" xmlns="http://www.w3.org/2000/svg">
<path d="M5.6 6.39994C6.2329 6.39994 6.85159 6.21226 7.37782 5.86064C7.90406 5.50902 8.31421 5.00925 8.55641 4.42453C8.79862 3.8398 8.86199 3.19639 8.73851 2.57565C8.61504 1.95491 8.31027 1.38473 7.86274 0.937199C7.41521 0.489671 6.84503 0.1849 6.22429 0.0614275C5.60355 -0.0620452 4.96014 0.00132546 4.37541 0.243526C3.79069 0.485726 3.29092 0.895878 2.9393 1.42212C2.58768 1.94835 2.4 2.56704 2.4 3.19994C2.4 4.04863 2.73714 4.86257 3.33726 5.46268C3.93737 6.0628 4.75131 6.39994 5.6 6.39994ZM7.84 7.19994H7.4225C6.85106 7.46346 6.22927 7.59993 5.6 7.59993C4.97073 7.59993 4.34894 7.46346 3.7775 7.19994H3.36C2.46893 7.20014 1.61442 7.5542 0.984341 8.18428C0.354262 8.81436 0.000198832 9.66887 0 10.5599L0 11.5999C0 11.9182 0.126428 12.2234 0.351472 12.4485C0.576515 12.6735 0.88174 12.7999 1.2 12.7999H10C10.3183 12.7999 10.6235 12.6735 10.8485 12.4485C11.0736 12.2234 11.2 11.9182 11.2 11.5999V10.5599C11.1998 9.66887 10.8457 8.81436 10.2157 8.18428C9.58558 7.5542 8.73107 7.20014 7.84 7.19994Z" fill="#213F7D"/>
</svg>
